<?xml version="1.0" encoding="UTF-8" standalone="no"?>
<!DOCTYPE svg PUBLIC "-//W3C//DTD SVG 1.1//EN"
 "http://www.w3.org/Graphics/SVG/1.1/DTD/svg11.dtd">
<!-- Generated by graphviz version 2.43.0 (0)
 -->
<!-- Title: pico/main.c Pages: 1 -->
<svg width="332pt" height="137pt"
 viewBox="0.00 0.00 331.50 137.00" xmlns="http://www.w3.org/2000/svg" xmlns:xlink="http://www.w3.org/1999/xlink">
<g id="graph0" class="graph" transform="scale(1 1) rotate(0) translate(4 133)">
<title>pico/main.c</title>
<!-- Node1 -->
<g id="Node000001" class="node">
<title>Node1</title>
<g id="a_Node000001"><a xlink:title="Main entry point for RP2040 AVR ISP Programmer.">
<polygon fill="#999999" stroke="#666666" points="166.5,-129 93.5,-129 93.5,-110 166.5,-110 166.5,-129"/>
<text text-anchor="middle" x="130" y="-117" font-family="Helvetica,sans-Serif" font-size="10.00">pico/main.c</text>
</a>
</g>
</g>
<!-- Node2 -->
<g id="Node000002" class="node">
<title>Node2</title>
<g id="a_Node000002"><a xlink:title=" ">
<polygon fill="#e0e0e0" stroke="#999999" points="50,-74 0,-74 0,-55 50,-55 50,-74"/>
<text text-anchor="middle" x="25" y="-62" font-family="Helvetica,sans-Serif" font-size="10.00">stdio.h</text>
</a>
</g>
</g>
<!-- Node1&#45;&gt;Node2 -->
<g id="edge1_Node000001_Node000002" class="edge">
<title>Node1&#45;&gt;Node2</title>
<g id="a_edge1_Node000001_Node000002"><a xlink:title=" ">
<path fill="none" stroke="#63b8ff" d="M113.13,-109.98C96.39,-101.54 70.5,-88.47 51.11,-78.68"/>
<polygon fill="#63b8ff" stroke="#63b8ff" points="52.68,-75.55 42.18,-74.17 49.53,-81.8 52.68,-75.55"/>
</a>
</g>
</g>
<!-- Node3 -->
<g id="Node000003" class="node">
<title>Node3</title>
<g id="a_Node000003"><a xlink:title=" ">
<polygon fill="#e0e0e0" stroke="#999999" points="179,-19 103,-19 103,0 179,0 179,-19"/>
<text text-anchor="middle" x="141" y="-7" font-family="Helvetica,sans-Serif" font-size="10.00">pico/stdlib.h</text>
</a>
</g>
</g>
<!-- Node1&#45;&gt;Node3 -->
<g id="edge2_Node000001_Node000003" class="edge">
<title>Node1&#45;&gt;Node3</title>
<g id="a_edge2_Node000001_Node000003"><a xlink:title=" ">
<path fill="none" stroke="#63b8ff" d="M119.91,-109.7C107.4,-97.65 88.69,-75.23 97,-55 101.81,-43.31 111.33,-33.05 120.3,-25.34"/>
<polygon fill="#63b8ff" stroke="#63b8ff" points="122.6,-27.98 128.22,-19 118.23,-22.51 122.6,-27.98"/>
</a>
</g>
</g>
<!-- Node4 -->
<g id="Node000004" class="node">
<title>Node4</title>
<g id="a_Node000004"><a xlink:title=" ">
<polygon fill="#e0e0e0" stroke="#999999" points="153.5,-74 106.5,-74 106.5,-55 153.5,-55 153.5,-74"/>
<text text-anchor="middle" x="130" y="-62" font-family="Helvetica,sans-Serif" font-size="10.00">tusb.h</text>
</a>
</g>
</g>
<!-- Node1&#45;&gt;Node4 -->
<g id="edge3_Node000001_Node000004" class="edge">
<title>Node1&#45;&gt;Node4</title>
<g id="a_edge3_Node000001_Node000004"><a xlink:title=" ">
<path fill="none" stroke="#63b8ff" d="M130,-109.75C130,-102.8 130,-92.85 130,-84.13"/>
<polygon fill="#63b8ff" stroke="#63b8ff" points="133.5,-84.09 130,-74.09 126.5,-84.09 133.5,-84.09"/>
</a>
</g>
</g>
<!-- Node5 -->
<g id="Node000005" class="node">
<title>Node5</title>
<g id="a_Node000005"><a xlink:href="avrprog_8h.html" target="_top" xlink:title="AVR ISP Programming Interface &#45; Function Prototypes.">
<polygon fill="white" stroke="#666666" points="234.5,-74 171.5,-74 171.5,-55 234.5,-55 234.5,-74"/>
<text text-anchor="middle" x="203" y="-62" font-family="Helvetica,sans-Serif" font-size="10.00">avrprog.h</text>
</a>
</g>
</g>
<!-- Node1&#45;&gt;Node5 -->
<g id="edge4_Node000001_Node000005" class="edge">
<title>Node1&#45;&gt;Node5</title>
<g id="a_edge4_Node000001_Node000005"><a xlink:title=" ">
<path fill="none" stroke="#63b8ff" d="M141.73,-109.98C152.73,-102 169.42,-89.88 182.6,-80.31"/>
<polygon fill="#63b8ff" stroke="#63b8ff" points="185.02,-82.88 191.06,-74.17 180.91,-77.21 185.02,-82.88"/>
</a>
</g>
</g>
<!-- Node6 -->
<g id="Node000006" class="node">
<title>Node6</title>
<g id="a_Node000006"><a xlink:href="stk500v1_8h.html" target="_top" xlink:title="STK500v1 Protocol Constants and Interface Definitions.">
<polygon fill="white" stroke="#666666" points="323.5,-74 252.5,-74 252.5,-55 323.5,-55 323.5,-74"/>
<text text-anchor="middle" x="288" y="-62" font-family="Helvetica,sans-Serif" font-size="10.00">stk500v1.h</text>
</a>
</g>
</g>
<!-- Node1&#45;&gt;Node6 -->
<g id="edge6_Node000001_Node000006" class="edge">
<title>Node1&#45;&gt;Node6</title>
<g id="a_edge6_Node000001_Node000006"><a xlink:title=" ">
<path fill="none" stroke="#63b8ff" d="M155.39,-109.98C181.8,-101.13 223.35,-87.19 252.89,-77.28"/>
<polygon fill="#63b8ff" stroke="#63b8ff" points="254.05,-80.58 262.42,-74.08 251.82,-73.94 254.05,-80.58"/>
</a>
</g>
</g>
<!-- Node5&#45;&gt;Node3 -->
<g id="edge5_Node000005_Node000003" class="edge">
<title>Node5&#45;&gt;Node3</title>
<g id="a_edge5_Node000005_Node000003"><a xlink:title=" ">
<path fill="none" stroke="#63b8ff" d="M193.04,-54.98C183.87,-47.15 170.06,-35.34 158.97,-25.86"/>
<polygon fill="#63b8ff" stroke="#63b8ff" points="161.02,-23.01 151.14,-19.17 156.47,-28.33 161.02,-23.01"/>
</a>
</g>
</g>
<!-- Node7 -->
<g id="Node000007" class="node">
<title>Node7</title>
<g id="a_Node000007"><a xlink:title=" ">
<polygon fill="#e0e0e0" stroke="#999999" points="314.5,-19 261.5,-19 261.5,0 314.5,0 314.5,-19"/>
<text text-anchor="middle" x="288" y="-7" font-family="Helvetica,sans-Serif" font-size="10.00">stdint.h</text>
</a>
</g>
</g>
<!-- Node6&#45;&gt;Node7 -->
<g id="edge7_Node000006_Node000007" class="edge">
<title>Node6&#45;&gt;Node7</title>
<g id="a_edge7_Node000006_Node000007"><a xlink:title=" ">
<path fill="none" stroke="#63b8ff" d="M288,-54.75C288,-47.8 288,-37.85 288,-29.13"/>
<polygon fill="#63b8ff" stroke="#63b8ff" points="291.5,-29.09 288,-19.09 284.5,-29.09 291.5,-29.09"/>
</a>
</g>
</g>
</g>
</svg>
