<?xml version="1.0" encoding="UTF-8" standalone="no"?>
<!DOCTYPE svg PUBLIC "-//W3C//DTD SVG 1.1//EN"
 "http://www.w3.org/Graphics/SVG/1.1/DTD/svg11.dtd">
<!-- Generated by graphviz version 2.43.0 (0)
 -->
<!-- Title: main Pages: 1 -->
<svg width="174pt" height="101pt"
 viewBox="0.00 0.00 174.00 101.00" xmlns="http://www.w3.org/2000/svg" xmlns:xlink="http://www.w3.org/1999/xlink">
<g id="graph0" class="graph" transform="scale(1 1) rotate(0) translate(4 97)">
<title>main</title>
<!-- Node1 -->
<g id="Node000001" class="node">
<title>Node1</title>
<g id="a_Node000001"><a xlink:title="Main application entry point.">
<polygon fill="#999999" stroke="#666666" points="41,-56 0,-56 0,-37 41,-37 41,-56"/>
<text text-anchor="middle" x="20.5" y="-44" font-family="Helvetica,sans-Serif" font-size="10.00">main</text>
</a>
</g>
</g>
<!-- Node2 -->
<g id="Node000002" class="node">
<title>Node2</title>
<g id="a_Node000002"><a xlink:href="avrprog_8c.html#afd14f08aed255cec267160466dcc769f" target="_top" xlink:title="Initialize the SPI interface for AVR ISP communication.">
<polygon fill="white" stroke="#666666" points="158,-93 85,-93 85,-74 158,-74 158,-93"/>
<text text-anchor="middle" x="121.5" y="-81" font-family="Helvetica,sans-Serif" font-size="10.00">avr_spi_init</text>
</a>
</g>
</g>
<!-- Node1&#45;&gt;Node2 -->
<g id="edge1_Node000001_Node000002" class="edge">
<title>Node1&#45;&gt;Node2</title>
<g id="a_edge1_Node000001_Node000002"><a xlink:title=" ">
<path fill="none" stroke="#63b8ff" d="M41.06,-53.81C53.72,-58.54 70.58,-64.84 85.51,-70.42"/>
<polygon fill="#63b8ff" stroke="#63b8ff" points="84.38,-73.74 94.97,-73.96 86.83,-67.18 84.38,-73.74"/>
</a>
</g>
</g>
<!-- Node3 -->
<g id="Node000003" class="node">
<title>Node3</title>
<g id="a_Node000003"><a xlink:href="stk500v1_8c.html#a89208d3f284ca7086dee7a9f1b1c7465" target="_top" xlink:title="Feed received bytes into the STK500v1 protocol parser.">
<polygon fill="white" stroke="#666666" points="166,-56 77,-56 77,-37 166,-37 166,-56"/>
<text text-anchor="middle" x="121.5" y="-44" font-family="Helvetica,sans-Serif" font-size="10.00">stk500v1_feed</text>
</a>
</g>
</g>
<!-- Node1&#45;&gt;Node3 -->
<g id="edge2_Node000001_Node000003" class="edge">
<title>Node1&#45;&gt;Node3</title>
<g id="a_edge2_Node000001_Node000003"><a xlink:title=" ">
<path fill="none" stroke="#63b8ff" d="M41.06,-46.5C48.59,-46.5 57.6,-46.5 66.81,-46.5"/>
<polygon fill="#63b8ff" stroke="#63b8ff" points="66.82,-50 76.82,-46.5 66.82,-43 66.82,-50"/>
</a>
</g>
</g>
<!-- Node4 -->
<g id="Node000004" class="node">
<title>Node4</title>
<g id="a_Node000004"><a xlink:href="stk500v1_8c.html#a57f4263123a289ca7b7053f6d7dbb8f2" target="_top" xlink:title="Initialize STK500v1 protocol handler state.">
<polygon fill="white" stroke="#666666" points="163,-19 80,-19 80,0 163,0 163,-19"/>
<text text-anchor="middle" x="121.5" y="-7" font-family="Helvetica,sans-Serif" font-size="10.00">stk500v1_init</text>
</a>
</g>
</g>
<!-- Node1&#45;&gt;Node4 -->
<g id="edge3_Node000001_Node000004" class="edge">
<title>Node1&#45;&gt;Node4</title>
<g id="a_edge3_Node000001_Node000004"><a xlink:title=" ">
<path fill="none" stroke="#63b8ff" d="M41.06,-39.19C53.72,-34.46 70.58,-28.16 85.51,-22.58"/>
<polygon fill="#63b8ff" stroke="#63b8ff" points="86.83,-25.82 94.97,-19.04 84.38,-19.26 86.83,-25.82"/>
</a>
</g>
</g>
</g>
</svg>
