<?xml version="1.0" encoding="UTF-8" standalone="no"?>
<!DOCTYPE svg PUBLIC "-//W3C//DTD SVG 1.1//EN"
 "http://www.w3.org/Graphics/SVG/1.1/DTD/svg11.dtd">
<!-- Generated by graphviz version 2.43.0 (0)
 -->
<!-- Title: pico/avr_devices.c Pages: 1 -->
<svg width="166pt" height="137pt"
 viewBox="0.00 0.00 166.00 137.00" xmlns="http://www.w3.org/2000/svg" xmlns:xlink="http://www.w3.org/1999/xlink">
<g id="graph0" class="graph" transform="scale(1 1) rotate(0) translate(4 133)">
<title>pico/avr_devices.c</title>
<!-- Node1 -->
<g id="Node000001" class="node">
<title>Node1</title>
<g id="a_Node000001"><a xlink:title="AVR Device Database and Signature Lookup.">
<polygon fill="#999999" stroke="#666666" points="139.5,-129 32.5,-129 32.5,-110 139.5,-110 139.5,-129"/>
<text text-anchor="middle" x="86" y="-117" font-family="Helvetica,sans-Serif" font-size="10.00">pico/avr_devices.c</text>
</a>
</g>
</g>
<!-- Node2 -->
<g id="Node000002" class="node">
<title>Node2</title>
<g id="a_Node000002"><a xlink:href="avr__devices_8h.html" target="_top" xlink:title="AVR Device Database Types and Function Prototypes.">
<polygon fill="white" stroke="#666666" points="84,-74 0,-74 0,-55 84,-55 84,-74"/>
<text text-anchor="middle" x="42" y="-62" font-family="Helvetica,sans-Serif" font-size="10.00">avr_devices.h</text>
</a>
</g>
</g>
<!-- Node1&#45;&gt;Node2 -->
<g id="edge1_Node000001_Node000002" class="edge">
<title>Node1&#45;&gt;Node2</title>
<g id="a_edge1_Node000001_Node000002"><a xlink:title=" ">
<path fill="none" stroke="#63b8ff" d="M78.73,-109.75C72.46,-102.18 63.21,-91.05 55.57,-81.84"/>
<polygon fill="#63b8ff" stroke="#63b8ff" points="58.21,-79.55 49.13,-74.09 52.83,-84.02 58.21,-79.55"/>
</a>
</g>
</g>
<!-- Node4 -->
<g id="Node000004" class="node">
<title>Node4</title>
<g id="a_Node000004"><a xlink:title=" ">
<polygon fill="#e0e0e0" stroke="#999999" points="158,-74 102,-74 102,-55 158,-55 158,-74"/>
<text text-anchor="middle" x="130" y="-62" font-family="Helvetica,sans-Serif" font-size="10.00">stddef.h</text>
</a>
</g>
</g>
<!-- Node1&#45;&gt;Node4 -->
<g id="edge3_Node000001_Node000004" class="edge">
<title>Node1&#45;&gt;Node4</title>
<g id="a_edge3_Node000001_Node000004"><a xlink:title=" ">
<path fill="none" stroke="#63b8ff" d="M93.27,-109.75C99.54,-102.18 108.79,-91.05 116.43,-81.84"/>
<polygon fill="#63b8ff" stroke="#63b8ff" points="119.17,-84.02 122.87,-74.09 113.79,-79.55 119.17,-84.02"/>
</a>
</g>
</g>
<!-- Node3 -->
<g id="Node000003" class="node">
<title>Node3</title>
<g id="a_Node000003"><a xlink:title=" ">
<polygon fill="#e0e0e0" stroke="#999999" points="68.5,-19 15.5,-19 15.5,0 68.5,0 68.5,-19"/>
<text text-anchor="middle" x="42" y="-7" font-family="Helvetica,sans-Serif" font-size="10.00">stdint.h</text>
</a>
</g>
</g>
<!-- Node2&#45;&gt;Node3 -->
<g id="edge2_Node000002_Node000003" class="edge">
<title>Node2&#45;&gt;Node3</title>
<g id="a_edge2_Node000002_Node000003"><a xlink:title=" ">
<path fill="none" stroke="#63b8ff" d="M42,-54.75C42,-47.8 42,-37.85 42,-29.13"/>
<polygon fill="#63b8ff" stroke="#63b8ff" points="45.5,-29.09 42,-19.09 38.5,-29.09 45.5,-29.09"/>
</a>
</g>
</g>
</g>
</svg>
