<?xml version="1.0" encoding="UTF-8" standalone="no"?>
<!DOCTYPE svg PUBLIC "-//W3C//DTD SVG 1.1//EN"
 "http://www.w3.org/Graphics/SVG/1.1/DTD/svg11.dtd">
<!-- Generated by graphviz version 2.43.0 (0)
 -->
<!-- Title: pico/avrprog.h Pages: 1 -->
<svg width="297pt" height="82pt"
 viewBox="0.00 0.00 296.50 82.00" xmlns="http://www.w3.org/2000/svg" xmlns:xlink="http://www.w3.org/1999/xlink">
<g id="graph0" class="graph" transform="scale(1 1) rotate(0) translate(4 78)">
<title>pico/avrprog.h</title>
<!-- Node1 -->
<g id="Node000001" class="node">
<title>Node1</title>
<g id="a_Node000001"><a xlink:title="AVR ISP Programming Interface &#45; Function Prototypes.">
<polygon fill="#999999" stroke="#666666" points="184,-74 98,-74 98,-55 184,-55 184,-74"/>
<text text-anchor="middle" x="141" y="-62" font-family="Helvetica,sans-Serif" font-size="10.00">pico/avrprog.h</text>
</a>
</g>
</g>
<!-- Node2 -->
<g id="Node000002" class="node">
<title>Node2</title>
<g id="a_Node000002"><a xlink:href="avrprog_8c.html" target="_top" xlink:title="AVR ISP (In&#45;System Programming) implementation for Raspberry Pi Pico.">
<polygon fill="white" stroke="#666666" points="86,-19 0,-19 0,0 86,0 86,-19"/>
<text text-anchor="middle" x="43" y="-7" font-family="Helvetica,sans-Serif" font-size="10.00">pico/avrprog.c</text>
</a>
</g>
</g>
<!-- Node1&#45;&gt;Node2 -->
<g id="edge1_Node000001_Node000002" class="edge">
<title>Node1&#45;&gt;Node2</title>
<g id="a_edge1_Node000001_Node000002"><a xlink:title=" ">
<path fill="none" stroke="#63b8ff" d="M115.97,-49.97C98.06,-40.28 74.47,-27.52 59.03,-19.17"/>
<polygon fill="#63b8ff" stroke="#63b8ff" points="114.79,-53.31 125.25,-54.98 118.12,-47.15 114.79,-53.31"/>
</a>
</g>
</g>
<!-- Node3 -->
<g id="Node000003" class="node">
<title>Node3</title>
<g id="a_Node000003"><a xlink:href="main_8c.html" target="_top" xlink:title="Main entry point for RP2040 AVR ISP Programmer.">
<polygon fill="white" stroke="#666666" points="177.5,-19 104.5,-19 104.5,0 177.5,0 177.5,-19"/>
<text text-anchor="middle" x="141" y="-7" font-family="Helvetica,sans-Serif" font-size="10.00">pico/main.c</text>
</a>
</g>
</g>
<!-- Node1&#45;&gt;Node3 -->
<g id="edge2_Node000001_Node000003" class="edge">
<title>Node1&#45;&gt;Node3</title>
<g id="a_edge2_Node000001_Node000003"><a xlink:title=" ">
<path fill="none" stroke="#63b8ff" d="M141,-44.66C141,-35.93 141,-25.99 141,-19.09"/>
<polygon fill="#63b8ff" stroke="#63b8ff" points="137.5,-44.75 141,-54.75 144.5,-44.75 137.5,-44.75"/>
</a>
</g>
</g>
<!-- Node4 -->
<g id="Node000004" class="node">
<title>Node4</title>
<g id="a_Node000004"><a xlink:href="stk500v1_8c.html" target="_top" xlink:title="STK500v1 Protocol Implementation for AVR ISP Programming.">
<polygon fill="white" stroke="#666666" points="288.5,-19 195.5,-19 195.5,0 288.5,0 288.5,-19"/>
<text text-anchor="middle" x="242" y="-7" font-family="Helvetica,sans-Serif" font-size="10.00">pico/stk500v1.c</text>
</a>
</g>
</g>
<!-- Node1&#45;&gt;Node4 -->
<g id="edge3_Node000001_Node000004" class="edge">
<title>Node1&#45;&gt;Node4</title>
<g id="a_edge3_Node000001_Node000004"><a xlink:title=" ">
<path fill="none" stroke="#63b8ff" d="M166.28,-50.23C184.8,-40.51 209.42,-27.6 225.48,-19.17"/>
<polygon fill="#63b8ff" stroke="#63b8ff" points="164.46,-47.24 157.23,-54.98 167.71,-53.44 164.46,-47.24"/>
</a>
</g>
</g>
</g>
</svg>
