<?xml version="1.0" encoding="UTF-8" standalone="no"?>
<!DOCTYPE svg PUBLIC "-//W3C//DTD SVG 1.1//EN"
 "http://www.w3.org/Graphics/SVG/1.1/DTD/svg11.dtd">
<!-- Generated by graphviz version 2.43.0 (0)
 -->
<!-- Title: pico/stk500v1.c Pages: 1 -->
<svg width="544pt" height="137pt"
 viewBox="0.00 0.00 544.00 137.00" xmlns="http://www.w3.org/2000/svg" xmlns:xlink="http://www.w3.org/1999/xlink">
<g id="graph0" class="graph" transform="scale(1 1) rotate(0) translate(4 133)">
<title>pico/stk500v1.c</title>
<!-- Node1 -->
<g id="Node000001" class="node">
<title>Node1</title>
<g id="a_Node000001"><a xlink:title="STK500v1 Protocol Implementation for AVR ISP Programming.">
<polygon fill="#999999" stroke="#666666" points="253,-129 160,-129 160,-110 253,-110 253,-129"/>
<text text-anchor="middle" x="206.5" y="-117" font-family="Helvetica,sans-Serif" font-size="10.00">pico/stk500v1.c</text>
</a>
</g>
</g>
<!-- Node2 -->
<g id="Node000002" class="node">
<title>Node2</title>
<g id="a_Node000002"><a xlink:title=" ">
<polygon fill="#e0e0e0" stroke="#999999" points="53,-74 0,-74 0,-55 53,-55 53,-74"/>
<text text-anchor="middle" x="26.5" y="-62" font-family="Helvetica,sans-Serif" font-size="10.00">string.h</text>
</a>
</g>
</g>
<!-- Node1&#45;&gt;Node2 -->
<g id="edge1_Node000001_Node000002" class="edge">
<title>Node1&#45;&gt;Node2</title>
<g id="a_edge1_Node000001_Node000002"><a xlink:title=" ">
<path fill="none" stroke="#63b8ff" d="M177.58,-109.98C146.42,-100.81 96.76,-86.19 62.95,-76.23"/>
<polygon fill="#63b8ff" stroke="#63b8ff" points="63.58,-72.77 53,-73.3 61.61,-79.49 63.58,-72.77"/>
</a>
</g>
</g>
<!-- Node3 -->
<g id="Node000003" class="node">
<title>Node3</title>
<g id="a_Node000003"><a xlink:title=" ">
<polygon fill="#e0e0e0" stroke="#999999" points="182.5,-19 106.5,-19 106.5,0 182.5,0 182.5,-19"/>
<text text-anchor="middle" x="144.5" y="-7" font-family="Helvetica,sans-Serif" font-size="10.00">pico/stdlib.h</text>
</a>
</g>
</g>
<!-- Node1&#45;&gt;Node3 -->
<g id="edge2_Node000001_Node000003" class="edge">
<title>Node1&#45;&gt;Node3</title>
<g id="a_edge2_Node000001_Node000003"><a xlink:title=" ">
<path fill="none" stroke="#63b8ff" d="M159.76,-111.05C137.88,-104.97 113.76,-93.95 100.5,-74 89.25,-57.07 106.74,-37.93 122.89,-25.13"/>
<polygon fill="#63b8ff" stroke="#63b8ff" points="125.12,-27.83 131.05,-19.06 120.94,-22.21 125.12,-27.83"/>
</a>
</g>
</g>
<!-- Node4 -->
<g id="Node000004" class="node">
<title>Node4</title>
<g id="a_Node000004"><a xlink:title=" ">
<polygon fill="#e0e0e0" stroke="#999999" points="157,-74 110,-74 110,-55 157,-55 157,-74"/>
<text text-anchor="middle" x="133.5" y="-62" font-family="Helvetica,sans-Serif" font-size="10.00">tusb.h</text>
</a>
</g>
</g>
<!-- Node1&#45;&gt;Node4 -->
<g id="edge3_Node000001_Node000004" class="edge">
<title>Node1&#45;&gt;Node4</title>
<g id="a_edge3_Node000001_Node000004"><a xlink:title=" ">
<path fill="none" stroke="#63b8ff" d="M194.77,-109.98C183.77,-102 167.08,-89.88 153.9,-80.31"/>
<polygon fill="#63b8ff" stroke="#63b8ff" points="155.59,-77.21 145.44,-74.17 151.48,-82.88 155.59,-77.21"/>
</a>
</g>
</g>
<!-- Node5 -->
<g id="Node000005" class="node">
<title>Node5</title>
<g id="a_Node000005"><a xlink:href="stk500v1_8h.html" target="_top" xlink:title="STK500v1 Protocol Constants and Interface Definitions.">
<polygon fill="white" stroke="#666666" points="327,-74 256,-74 256,-55 327,-55 327,-74"/>
<text text-anchor="middle" x="291.5" y="-62" font-family="Helvetica,sans-Serif" font-size="10.00">stk500v1.h</text>
</a>
</g>
</g>
<!-- Node1&#45;&gt;Node5 -->
<g id="edge4_Node000001_Node000005" class="edge">
<title>Node1&#45;&gt;Node5</title>
<g id="a_edge4_Node000001_Node000005"><a xlink:title=" ">
<path fill="none" stroke="#63b8ff" d="M220.16,-109.98C233.34,-101.77 253.53,-89.18 269.07,-79.49"/>
<polygon fill="#63b8ff" stroke="#63b8ff" points="270.96,-82.43 277.59,-74.17 267.26,-76.49 270.96,-82.43"/>
</a>
</g>
</g>
<!-- Node7 -->
<g id="Node000007" class="node">
<title>Node7</title>
<g id="a_Node000007"><a xlink:href="avrprog_8h.html" target="_top" xlink:title="AVR ISP Programming Interface &#45; Function Prototypes.">
<polygon fill="white" stroke="#666666" points="238,-74 175,-74 175,-55 238,-55 238,-74"/>
<text text-anchor="middle" x="206.5" y="-62" font-family="Helvetica,sans-Serif" font-size="10.00">avrprog.h</text>
</a>
</g>
</g>
<!-- Node1&#45;&gt;Node7 -->
<g id="edge6_Node000001_Node000007" class="edge">
<title>Node1&#45;&gt;Node7</title>
<g id="a_edge6_Node000001_Node000007"><a xlink:title=" ">
<path fill="none" stroke="#63b8ff" d="M206.5,-109.75C206.5,-102.8 206.5,-92.85 206.5,-84.13"/>
<polygon fill="#63b8ff" stroke="#63b8ff" points="210,-84.09 206.5,-74.09 203,-84.09 210,-84.09"/>
</a>
</g>
</g>
<!-- Node8 -->
<g id="Node000008" class="node">
<title>Node8</title>
<g id="a_Node000008"><a xlink:href="avr__devices_8h.html" target="_top" xlink:title="AVR Device Database Types and Function Prototypes.">
<polygon fill="white" stroke="#666666" points="429.5,-74 345.5,-74 345.5,-55 429.5,-55 429.5,-74"/>
<text text-anchor="middle" x="387.5" y="-62" font-family="Helvetica,sans-Serif" font-size="10.00">avr_devices.h</text>
</a>
</g>
</g>
<!-- Node1&#45;&gt;Node8 -->
<g id="edge8_Node000001_Node000008" class="edge">
<title>Node1&#45;&gt;Node8</title>
<g id="a_edge8_Node000001_Node000008"><a xlink:title=" ">
<path fill="none" stroke="#63b8ff" d="M235.58,-109.98C266.1,-101.05 314.26,-86.94 348.16,-77.02"/>
<polygon fill="#63b8ff" stroke="#63b8ff" points="349.58,-80.25 358.19,-74.08 347.61,-73.53 349.58,-80.25"/>
</a>
</g>
</g>
<!-- Node9 -->
<g id="Node000009" class="node">
<title>Node9</title>
<g id="a_Node000009"><a xlink:title=" ">
<polygon fill="#e0e0e0" stroke="#999999" points="536,-74 447,-74 447,-55 536,-55 536,-74"/>
<text text-anchor="middle" x="491.5" y="-62" font-family="Helvetica,sans-Serif" font-size="10.00">hardware/spi.h</text>
</a>
</g>
</g>
<!-- Node1&#45;&gt;Node9 -->
<g id="edge10_Node000001_Node000009" class="edge">
<title>Node1&#45;&gt;Node9</title>
<g id="a_edge10_Node000001_Node000009"><a xlink:title=" ">
<path fill="none" stroke="#63b8ff" d="M252.29,-109.98C302.55,-100.64 383.2,-85.64 436.76,-75.68"/>
<polygon fill="#63b8ff" stroke="#63b8ff" points="437.57,-79.09 446.76,-73.82 436.29,-72.21 437.57,-79.09"/>
</a>
</g>
</g>
<!-- Node6 -->
<g id="Node000006" class="node">
<title>Node6</title>
<g id="a_Node000006"><a xlink:title=" ">
<polygon fill="#e0e0e0" stroke="#999999" points="366,-19 313,-19 313,0 366,0 366,-19"/>
<text text-anchor="middle" x="339.5" y="-7" font-family="Helvetica,sans-Serif" font-size="10.00">stdint.h</text>
</a>
</g>
</g>
<!-- Node5&#45;&gt;Node6 -->
<g id="edge5_Node000005_Node000006" class="edge">
<title>Node5&#45;&gt;Node6</title>
<g id="a_edge5_Node000005_Node000006"><a xlink:title=" ">
<path fill="none" stroke="#63b8ff" d="M299.43,-54.75C306.35,-47.11 316.57,-35.82 324.95,-26.56"/>
<polygon fill="#63b8ff" stroke="#63b8ff" points="327.6,-28.85 331.72,-19.09 322.41,-24.15 327.6,-28.85"/>
</a>
</g>
</g>
<!-- Node7&#45;&gt;Node3 -->
<g id="edge7_Node000007_Node000003" class="edge">
<title>Node7&#45;&gt;Node3</title>
<g id="a_edge7_Node000007_Node000003"><a xlink:title=" ">
<path fill="none" stroke="#63b8ff" d="M196.54,-54.98C187.37,-47.15 173.56,-35.34 162.47,-25.86"/>
<polygon fill="#63b8ff" stroke="#63b8ff" points="164.52,-23.01 154.64,-19.17 159.97,-28.33 164.52,-23.01"/>
</a>
</g>
</g>
<!-- Node8&#45;&gt;Node6 -->
<g id="edge9_Node000008_Node000006" class="edge">
<title>Node8&#45;&gt;Node6</title>
<g id="a_edge9_Node000008_Node000006"><a xlink:title=" ">
<path fill="none" stroke="#63b8ff" d="M379.57,-54.75C372.65,-47.11 362.43,-35.82 354.05,-26.56"/>
<polygon fill="#63b8ff" stroke="#63b8ff" points="356.59,-24.15 347.28,-19.09 351.4,-28.85 356.59,-24.15"/>
</a>
</g>
</g>
</g>
</svg>
