<?xml version="1.0" encoding="UTF-8" standalone="no"?>
<!DOCTYPE svg PUBLIC "-//W3C//DTD SVG 1.1//EN"
 "http://www.w3.org/Graphics/SVG/1.1/DTD/svg11.dtd">
<!-- Generated by graphviz version 2.43.0 (0)
 -->
<!-- Title: pico/avr_devices.h Pages: 1 -->
<svg width="226pt" height="82pt"
 viewBox="0.00 0.00 226.00 82.00" xmlns="http://www.w3.org/2000/svg" xmlns:xlink="http://www.w3.org/1999/xlink">
<g id="graph0" class="graph" transform="scale(1 1) rotate(0) translate(4 78)">
<title>pico/avr_devices.h</title>
<!-- Node1 -->
<g id="Node000001" class="node">
<title>Node1</title>
<g id="a_Node000001"><a xlink:title="AVR Device Database Types and Function Prototypes.">
<polygon fill="#999999" stroke="#666666" points="166,-74 59,-74 59,-55 166,-55 166,-74"/>
<text text-anchor="middle" x="112.5" y="-62" font-family="Helvetica,sans-Serif" font-size="10.00">pico/avr_devices.h</text>
</a>
</g>
</g>
<!-- Node2 -->
<g id="Node000002" class="node">
<title>Node2</title>
<g id="a_Node000002"><a xlink:href="avr__devices_8c.html" target="_top" xlink:title="AVR Device Database and Signature Lookup.">
<polygon fill="white" stroke="#666666" points="107,-19 0,-19 0,0 107,0 107,-19"/>
<text text-anchor="middle" x="53.5" y="-7" font-family="Helvetica,sans-Serif" font-size="10.00">pico/avr_devices.c</text>
</a>
</g>
</g>
<!-- Node1&#45;&gt;Node2 -->
<g id="edge1_Node000001_Node000002" class="edge">
<title>Node1&#45;&gt;Node2</title>
<g id="a_edge1_Node000001_Node000002"><a xlink:title=" ">
<path fill="none" stroke="#63b8ff" d="M95.3,-48.04C84.83,-38.64 71.85,-26.98 63.15,-19.17"/>
<polygon fill="#63b8ff" stroke="#63b8ff" points="93.24,-50.91 103.02,-54.98 97.92,-45.7 93.24,-50.91"/>
</a>
</g>
</g>
<!-- Node3 -->
<g id="Node000003" class="node">
<title>Node3</title>
<g id="a_Node000003"><a xlink:href="stk500v1_8c.html" target="_top" xlink:title="STK500v1 Protocol Implementation for AVR ISP Programming.">
<polygon fill="white" stroke="#666666" points="218,-19 125,-19 125,0 218,0 218,-19"/>
<text text-anchor="middle" x="171.5" y="-7" font-family="Helvetica,sans-Serif" font-size="10.00">pico/stk500v1.c</text>
</a>
</g>
</g>
<!-- Node1&#45;&gt;Node3 -->
<g id="edge2_Node000001_Node000003" class="edge">
<title>Node1&#45;&gt;Node3</title>
<g id="a_edge2_Node000001_Node000003"><a xlink:title=" ">
<path fill="none" stroke="#63b8ff" d="M129.7,-48.04C140.17,-38.64 153.15,-26.98 161.85,-19.17"/>
<polygon fill="#63b8ff" stroke="#63b8ff" points="127.08,-45.7 121.98,-54.98 131.76,-50.91 127.08,-45.7"/>
</a>
</g>
</g>
</g>
</svg>
