<?xml version="1.0" encoding="UTF-8" standalone="no"?>
<!DOCTYPE svg PUBLIC "-//W3C//DTD SVG 1.1//EN"
 "http://www.w3.org/Graphics/SVG/1.1/DTD/svg11.dtd">
<!-- Generated by graphviz version 2.43.0 (0)
 -->
<!-- Title: pico/avrprog.c Pages: 1 -->
<svg width="357pt" height="137pt"
 viewBox="0.00 0.00 356.50 137.00" xmlns="http://www.w3.org/2000/svg" xmlns:xlink="http://www.w3.org/1999/xlink">
<g id="graph0" class="graph" transform="scale(1 1) rotate(0) translate(4 133)">
<title>pico/avrprog.c</title>
<!-- Node1 -->
<g id="Node000001" class="node">
<title>Node1</title>
<g id="a_Node000001"><a xlink:title="AVR ISP (In&#45;System Programming) implementation for Raspberry Pi Pico.">
<polygon fill="#999999" stroke="#666666" points="189.5,-129 103.5,-129 103.5,-110 189.5,-110 189.5,-129"/>
<text text-anchor="middle" x="146.5" y="-117" font-family="Helvetica,sans-Serif" font-size="10.00">pico/avrprog.c</text>
</a>
</g>
</g>
<!-- Node2 -->
<g id="Node000002" class="node">
<title>Node2</title>
<g id="a_Node000002"><a xlink:href="avrprog_8h.html" target="_top" xlink:title="AVR ISP Programming Interface &#45; Function Prototypes.">
<polygon fill="white" stroke="#666666" points="63,-74 0,-74 0,-55 63,-55 63,-74"/>
<text text-anchor="middle" x="31.5" y="-62" font-family="Helvetica,sans-Serif" font-size="10.00">avrprog.h</text>
</a>
</g>
</g>
<!-- Node1&#45;&gt;Node2 -->
<g id="edge1_Node000001_Node000002" class="edge">
<title>Node1&#45;&gt;Node2</title>
<g id="a_edge1_Node000001_Node000002"><a xlink:title=" ">
<path fill="none" stroke="#63b8ff" d="M128.02,-109.98C109.52,-101.46 80.82,-88.23 59.52,-78.41"/>
<polygon fill="#63b8ff" stroke="#63b8ff" points="60.86,-75.18 50.31,-74.17 57.93,-81.53 60.86,-75.18"/>
</a>
</g>
</g>
<!-- Node3 -->
<g id="Node000003" class="node">
<title>Node3</title>
<g id="a_Node000003"><a xlink:title=" ">
<polygon fill="#e0e0e0" stroke="#999999" points="99.5,-19 23.5,-19 23.5,0 99.5,0 99.5,-19"/>
<text text-anchor="middle" x="61.5" y="-7" font-family="Helvetica,sans-Serif" font-size="10.00">pico/stdlib.h</text>
</a>
</g>
</g>
<!-- Node1&#45;&gt;Node3 -->
<g id="edge4_Node000001_Node000003" class="edge">
<title>Node1&#45;&gt;Node3</title>
<g id="a_edge4_Node000001_Node000003"><a xlink:title=" ">
<path fill="none" stroke="#63b8ff" d="M139.54,-109.66C125.34,-91.61 92.81,-50.28 74.55,-27.08"/>
<polygon fill="#63b8ff" stroke="#63b8ff" points="77.25,-24.85 68.31,-19.16 71.75,-29.18 77.25,-24.85"/>
</a>
</g>
</g>
<!-- Node4 -->
<g id="Node000004" class="node">
<title>Node4</title>
<g id="a_Node000004"><a xlink:title=" ">
<polygon fill="#e0e0e0" stroke="#999999" points="173,-74 120,-74 120,-55 173,-55 173,-74"/>
<text text-anchor="middle" x="146.5" y="-62" font-family="Helvetica,sans-Serif" font-size="10.00">stdint.h</text>
</a>
</g>
</g>
<!-- Node1&#45;&gt;Node4 -->
<g id="edge3_Node000001_Node000004" class="edge">
<title>Node1&#45;&gt;Node4</title>
<g id="a_edge3_Node000001_Node000004"><a xlink:title=" ">
<path fill="none" stroke="#63b8ff" d="M146.5,-109.75C146.5,-102.8 146.5,-92.85 146.5,-84.13"/>
<polygon fill="#63b8ff" stroke="#63b8ff" points="150,-84.09 146.5,-74.09 143,-84.09 150,-84.09"/>
</a>
</g>
</g>
<!-- Node5 -->
<g id="Node000005" class="node">
<title>Node5</title>
<g id="a_Node000005"><a xlink:title=" ">
<polygon fill="#e0e0e0" stroke="#999999" points="280,-74 191,-74 191,-55 280,-55 280,-74"/>
<text text-anchor="middle" x="235.5" y="-62" font-family="Helvetica,sans-Serif" font-size="10.00">hardware/spi.h</text>
</a>
</g>
</g>
<!-- Node1&#45;&gt;Node5 -->
<g id="edge5_Node000001_Node000005" class="edge">
<title>Node1&#45;&gt;Node5</title>
<g id="a_edge5_Node000001_Node000005"><a xlink:title=" ">
<path fill="none" stroke="#63b8ff" d="M160.8,-109.98C174.6,-101.77 195.74,-89.18 212.01,-79.49"/>
<polygon fill="#63b8ff" stroke="#63b8ff" points="214.14,-82.29 220.94,-74.17 210.56,-76.28 214.14,-82.29"/>
</a>
</g>
</g>
<!-- Node6 -->
<g id="Node000006" class="node">
<title>Node6</title>
<g id="a_Node000006"><a xlink:title=" ">
<polygon fill="#e0e0e0" stroke="#999999" points="348.5,-74 298.5,-74 298.5,-55 348.5,-55 348.5,-74"/>
<text text-anchor="middle" x="323.5" y="-62" font-family="Helvetica,sans-Serif" font-size="10.00">stdio.h</text>
</a>
</g>
</g>
<!-- Node1&#45;&gt;Node6 -->
<g id="edge6_Node000001_Node000006" class="edge">
<title>Node1&#45;&gt;Node6</title>
<g id="a_edge6_Node000001_Node000006"><a xlink:title=" ">
<path fill="none" stroke="#63b8ff" d="M174.94,-109.98C205.85,-100.73 255.26,-85.93 288.52,-75.97"/>
<polygon fill="#63b8ff" stroke="#63b8ff" points="289.71,-79.27 298.29,-73.05 287.7,-72.57 289.71,-79.27"/>
</a>
</g>
</g>
<!-- Node2&#45;&gt;Node3 -->
<g id="edge2_Node000002_Node000003" class="edge">
<title>Node2&#45;&gt;Node3</title>
<g id="a_edge2_Node000002_Node000003"><a xlink:title=" ">
<path fill="none" stroke="#63b8ff" d="M36.45,-54.75C40.56,-47.49 46.53,-36.95 51.6,-27.98"/>
<polygon fill="#63b8ff" stroke="#63b8ff" points="54.76,-29.52 56.64,-19.09 48.67,-26.07 54.76,-29.52"/>
</a>
</g>
</g>
</g>
</svg>
