<?xml version="1.0" encoding="UTF-8" standalone="no"?>
<!DOCTYPE svg PUBLIC "-//W3C//DTD SVG 1.1//EN"
 "http://www.w3.org/Graphics/SVG/1.1/DTD/svg11.dtd">
<!-- Generated by graphviz version 2.43.0 (0)
 -->
<!-- Title: avr_verify_program_memory_page Pages: 1 -->
<svg width="496pt" height="86pt"
 viewBox="0.00 0.00 496.00 86.00" xmlns="http://www.w3.org/2000/svg" xmlns:xlink="http://www.w3.org/1999/xlink">
<g id="graph0" class="graph" transform="scale(1 1) rotate(0) translate(4 82)">
<title>avr_verify_program_memory_page</title>
<!-- Node1 -->
<g id="Node000001" class="node">
<title>Node1</title>
<g id="a_Node000001"><a xlink:title="Verify programmed data by reading back and comparing.">
<polygon fill="#999999" stroke="#666666" points="112,-54 0,-54 0,-24 112,-24 112,-54"/>
<text text-anchor="start" x="8" y="-42" font-family="Helvetica,sans-Serif" font-size="10.00">avr_verify_program</text>
<text text-anchor="middle" x="56" y="-31" font-family="Helvetica,sans-Serif" font-size="10.00">_memory_page</text>
</a>
</g>
</g>
<!-- Node2 -->
<g id="Node000002" class="node">
<title>Node2</title>
<g id="a_Node000002"><a xlink:href="avrprog_8c.html#a4b159c70569ac198acd7cd6a46a8d30c" target="_top" xlink:title="Read a complete 16&#45;bit program word from memory.">
<polygon fill="white" stroke="#666666" points="300,-48.5 148,-48.5 148,-29.5 300,-29.5 300,-48.5"/>
<text text-anchor="middle" x="224" y="-36.5" font-family="Helvetica,sans-Serif" font-size="10.00">avr_read_program_memory</text>
</a>
</g>
</g>
<!-- Node1&#45;&gt;Node2 -->
<g id="edge1_Node000001_Node000002" class="edge">
<title>Node1&#45;&gt;Node2</title>
<g id="a_edge1_Node000001_Node000002"><a xlink:title=" ">
<path fill="none" stroke="#63b8ff" d="M112.28,-39C120.48,-39 129.09,-39 137.73,-39"/>
<polygon fill="#63b8ff" stroke="#63b8ff" points="137.87,-42.5 147.87,-39 137.87,-35.5 137.87,-42.5"/>
</a>
</g>
</g>
<!-- Node3 -->
<g id="Node000003" class="node">
<title>Node3</title>
<g id="a_Node000003"><a xlink:href="avrprog_8c.html#ab140e6a9e9d9a0b28c1669db8f4ef47e" target="_top" xlink:title="Read the high byte of a program memory word.">
<polygon fill="white" stroke="#666666" points="488,-78 336,-78 336,-48 488,-48 488,-78"/>
<text text-anchor="start" x="344" y="-66" font-family="Helvetica,sans-Serif" font-size="10.00">avr_read_program_memory</text>
<text text-anchor="middle" x="412" y="-55" font-family="Helvetica,sans-Serif" font-size="10.00">_high_byte</text>
</a>
</g>
</g>
<!-- Node2&#45;&gt;Node3 -->
<g id="edge2_Node000002_Node000003" class="edge">
<title>Node2&#45;&gt;Node3</title>
<g id="a_edge2_Node000002_Node000003"><a xlink:title=" ">
<path fill="none" stroke="#63b8ff" d="M298.78,-48.52C307.62,-49.66 316.71,-50.83 325.7,-51.99"/>
<polygon fill="#63b8ff" stroke="#63b8ff" points="325.42,-55.49 335.79,-53.3 326.32,-48.54 325.42,-55.49"/>
</a>
</g>
</g>
<!-- Node4 -->
<g id="Node000004" class="node">
<title>Node4</title>
<g id="a_Node000004"><a xlink:href="avrprog_8c.html#a4001d4bd58bb212246ad73ea16c7718a" target="_top" xlink:title="Read the low byte of a program memory word.">
<polygon fill="white" stroke="#666666" points="488,-30 336,-30 336,0 488,0 488,-30"/>
<text text-anchor="start" x="344" y="-18" font-family="Helvetica,sans-Serif" font-size="10.00">avr_read_program_memory</text>
<text text-anchor="middle" x="412" y="-7" font-family="Helvetica,sans-Serif" font-size="10.00">_low_byte</text>
</a>
</g>
</g>
<!-- Node2&#45;&gt;Node4 -->
<g id="edge3_Node000002_Node000004" class="edge">
<title>Node2&#45;&gt;Node4</title>
<g id="a_edge3_Node000002_Node000004"><a xlink:title=" ">
<path fill="none" stroke="#63b8ff" d="M298.78,-29.48C307.62,-28.34 316.71,-27.17 325.7,-26.01"/>
<polygon fill="#63b8ff" stroke="#63b8ff" points="326.32,-29.46 335.79,-24.7 325.42,-22.51 326.32,-29.46"/>
</a>
</g>
</g>
</g>
</svg>
