<?xml version="1.0" encoding="UTF-8" standalone="no"?>
<!DOCTYPE svg PUBLIC "-//W3C//DTD SVG 1.1//EN"
 "http://www.w3.org/Graphics/SVG/1.1/DTD/svg11.dtd">
<!-- Generated by graphviz version 2.43.0 (0)
 -->
<!-- Title: avr_read_program_memory_high_byte Pages: 1 -->
<svg width="496pt" height="38pt"
 viewBox="0.00 0.00 496.00 38.00" xmlns="http://www.w3.org/2000/svg" xmlns:xlink="http://www.w3.org/1999/xlink">
<g id="graph0" class="graph" transform="scale(1 1) rotate(0) translate(4 34)">
<title>avr_read_program_memory_high_byte</title>
<!-- Node1 -->
<g id="Node000001" class="node">
<title>Node1</title>
<g id="a_Node000001"><a xlink:title="Read the high byte of a program memory word.">
<polygon fill="#999999" stroke="#666666" points="488,-30 336,-30 336,0 488,0 488,-30"/>
<text text-anchor="start" x="344" y="-18" font-family="Helvetica,sans-Serif" font-size="10.00">avr_read_program_memory</text>
<text text-anchor="middle" x="412" y="-7" font-family="Helvetica,sans-Serif" font-size="10.00">_high_byte</text>
</a>
</g>
</g>
<!-- Node2 -->
<g id="Node000002" class="node">
<title>Node2</title>
<g id="a_Node000002"><a xlink:href="avrprog_8c.html#a4b159c70569ac198acd7cd6a46a8d30c" target="_top" xlink:title="Read a complete 16&#45;bit program word from memory.">
<polygon fill="white" stroke="#666666" points="300,-24.5 148,-24.5 148,-5.5 300,-5.5 300,-24.5"/>
<text text-anchor="middle" x="224" y="-12.5" font-family="Helvetica,sans-Serif" font-size="10.00">avr_read_program_memory</text>
</a>
</g>
</g>
<!-- Node1&#45;&gt;Node2 -->
<g id="edge1_Node000001_Node000002" class="edge">
<title>Node1&#45;&gt;Node2</title>
<g id="a_edge1_Node000001_Node000002"><a xlink:title=" ">
<path fill="none" stroke="#63b8ff" d="M325.85,-15C317.26,-15 308.57,-15 300.1,-15"/>
<polygon fill="#63b8ff" stroke="#63b8ff" points="325.88,-18.5 335.88,-15 325.88,-11.5 325.88,-18.5"/>
</a>
</g>
</g>
<!-- Node3 -->
<g id="Node000003" class="node">
<title>Node3</title>
<g id="a_Node000003"><a xlink:href="avrprog_8c.html#af00148ce9a1b4ce673524d31e20ff7e9" target="_top" xlink:title="Verify programmed data by reading back and comparing.">
<polygon fill="white" stroke="#666666" points="112,-30 0,-30 0,0 112,0 112,-30"/>
<text text-anchor="start" x="8" y="-18" font-family="Helvetica,sans-Serif" font-size="10.00">avr_verify_program</text>
<text text-anchor="middle" x="56" y="-7" font-family="Helvetica,sans-Serif" font-size="10.00">_memory_page</text>
</a>
</g>
</g>
<!-- Node2&#45;&gt;Node3 -->
<g id="edge2_Node000002_Node000003" class="edge">
<title>Node2&#45;&gt;Node3</title>
<g id="a_edge2_Node000002_Node000003"><a xlink:title=" ">
<path fill="none" stroke="#63b8ff" d="M137.61,-15C128.95,-15 120.32,-15 112.1,-15"/>
<polygon fill="#63b8ff" stroke="#63b8ff" points="137.77,-18.5 147.77,-15 137.77,-11.5 137.77,-18.5"/>
</a>
</g>
</g>
</g>
</svg>
