<?xml version="1.0" encoding="UTF-8" standalone="no"?>
<!DOCTYPE svg PUBLIC "-//W3C//DTD SVG 1.1//EN"
 "http://www.w3.org/Graphics/SVG/1.1/DTD/svg11.dtd">
<!-- Generated by graphviz version 2.43.0 (0)
 -->
<!-- Title: stk500v1_feed Pages: 1 -->
<svg width="1158pt" height="160pt"
 viewBox="0.00 0.00 1158.00 160.00" xmlns="http://www.w3.org/2000/svg" xmlns:xlink="http://www.w3.org/1999/xlink">
<g id="graph0" class="graph" transform="scale(1 1) rotate(0) translate(4 156)">
<title>stk500v1_feed</title>
<polygon fill="white" stroke="transparent" points="-4,4 -4,-156 1154,-156 1154,4 -4,4"/>
<!-- Start -->
<g id="node1" class="node">
<title>Start</title>
<polygon fill="none" stroke="black" points="54,-36 0,-36 0,0 54,0 54,-36"/>
<text text-anchor="middle" x="27" y="-14.3" font-family="Times,serif" font-size="14.00">Start</text>
</g>
<!-- AppendBytes -->
<g id="node2" class="node">
<title>AppendBytes</title>
<polygon fill="none" stroke="black" points="202,-70 91,-70 91,-34 202,-34 202,-70"/>
<text text-anchor="middle" x="146.5" y="-48.3" font-family="Times,serif" font-size="14.00">AppendBytes</text>
</g>
<!-- Start&#45;&gt;AppendBytes -->
<g id="edge1" class="edge">
<title>Start&#45;&gt;AppendBytes</title>
<path fill="none" stroke="black" d="M54.08,-25.55C62.11,-27.87 71.33,-30.54 80.76,-33.27"/>
<polygon fill="black" stroke="black" points="80.04,-36.7 90.62,-36.12 81.99,-29.98 80.04,-36.7"/>
</g>
<!-- End -->
<g id="node9" class="node">
<title>End</title>
<polygon fill="none" stroke="black" points="881,-42 827,-42 827,-6 881,-6 881,-42"/>
<text text-anchor="middle" x="854" y="-20.3" font-family="Times,serif" font-size="14.00">End</text>
</g>
<!-- Start&#45;&gt;End -->
<g id="edge10" class="edge">
<title>Start&#45;&gt;End</title>
<path fill="none" stroke="black" d="M54.06,-13.8C77.82,-10.34 113.92,-6 145.5,-6 145.5,-6 145.5,-6 641.5,-6 703.16,-6 774.57,-13.69 816.64,-19.02"/>
<polygon fill="black" stroke="black" points="816.32,-22.5 826.68,-20.31 817.21,-15.56 816.32,-22.5"/>
</g>
<!-- Parse loop -->
<g id="node3" class="node">
<title>Parse loop</title>
<polygon fill="none" stroke="black" points="330,-74 239,-74 239,-38 330,-38 330,-74"/>
<text text-anchor="middle" x="284.5" y="-52.3" font-family="Times,serif" font-size="14.00">Parse loop</text>
</g>
<!-- AppendBytes&#45;&gt;Parse loop -->
<g id="edge2" class="edge">
<title>AppendBytes&#45;&gt;Parse loop</title>
<path fill="none" stroke="black" d="M202.03,-53.6C210.85,-53.86 219.98,-54.13 228.8,-54.39"/>
<polygon fill="black" stroke="black" points="228.88,-57.89 238.98,-54.69 229.08,-50.9 228.88,-57.89"/>
</g>
<!-- Find EOP (0x20)? -->
<g id="node4" class="node">
<title>Find EOP (0x20)?</title>
<polygon fill="none" stroke="black" points="510,-74 367,-74 367,-38 510,-38 510,-74"/>
<text text-anchor="middle" x="438.5" y="-52.3" font-family="Times,serif" font-size="14.00">Find EOP (0x20)?</text>
</g>
<!-- Parse loop&#45;&gt;Find EOP (0x20)? -->
<g id="edge3" class="edge">
<title>Parse loop&#45;&gt;Find EOP (0x20)?</title>
<path fill="none" stroke="black" d="M330.28,-56C338.62,-56 347.56,-56 356.59,-56"/>
<polygon fill="black" stroke="black" points="356.81,-59.5 366.81,-56 356.81,-52.5 356.81,-59.5"/>
</g>
<!-- Need more bytes -->
<g id="node5" class="node">
<title>Need more bytes</title>
<polygon fill="none" stroke="black" points="710,-70 571,-70 571,-34 710,-34 710,-70"/>
<text text-anchor="middle" x="640.5" y="-48.3" font-family="Times,serif" font-size="14.00">Need more bytes</text>
</g>
<!-- Find EOP (0x20)?&#45;&gt;Need more bytes -->
<g id="edge4" class="edge">
<title>Find EOP (0x20)?&#45;&gt;Need more bytes</title>
<path fill="none" stroke="black" d="M510.01,-54.59C526.4,-54.26 543.96,-53.91 560.68,-53.58"/>
<polygon fill="black" stroke="black" points="561.04,-57.07 570.97,-53.37 560.9,-50.07 561.04,-57.07"/>
<text text-anchor="middle" x="540.5" y="-58.8" font-family="Times,serif" font-size="14.00">no</text>
</g>
<!-- Extract frame -->
<g id="node6" class="node">
<title>Extract frame</title>
<polygon fill="none" stroke="black" points="698.5,-124 582.5,-124 582.5,-88 698.5,-88 698.5,-124"/>
<text text-anchor="middle" x="640.5" y="-102.3" font-family="Times,serif" font-size="14.00">Extract frame</text>
</g>
<!-- Find EOP (0x20)?&#45;&gt;Extract frame -->
<g id="edge5" class="edge">
<title>Find EOP (0x20)?&#45;&gt;Extract frame</title>
<path fill="none" stroke="black" d="M510.01,-73.63C530.41,-78.73 552.59,-84.27 572.75,-89.31"/>
<polygon fill="black" stroke="black" points="571.91,-92.71 582.47,-91.74 573.61,-85.92 571.91,-92.71"/>
<text text-anchor="middle" x="540.5" y="-87.8" font-family="Times,serif" font-size="14.00">yes</text>
</g>
<!-- Need more bytes&#45;&gt;End -->
<g id="edge9" class="edge">
<title>Need more bytes&#45;&gt;End</title>
<path fill="none" stroke="black" d="M710.17,-42.91C745.62,-38.22 787.43,-32.68 816.63,-28.82"/>
<polygon fill="black" stroke="black" points="817.32,-32.25 826.78,-27.47 816.4,-25.31 817.32,-32.25"/>
</g>
<!-- handle_frame(cmd,payload) -->
<g id="node7" class="node">
<title>handle_frame(cmd,payload)</title>
<polygon fill="none" stroke="black" points="961,-124 747,-124 747,-88 961,-88 961,-124"/>
<text text-anchor="middle" x="854" y="-102.3" font-family="Times,serif" font-size="14.00">handle_frame(cmd,payload)</text>
</g>
<!-- Extract frame&#45;&gt;handle_frame(cmd,payload) -->
<g id="edge6" class="edge">
<title>Extract frame&#45;&gt;handle_frame(cmd,payload)</title>
<path fill="none" stroke="black" d="M698.73,-106C710.63,-106 723.57,-106 736.73,-106"/>
<polygon fill="black" stroke="black" points="736.82,-109.5 746.82,-106 736.82,-102.5 736.82,-109.5"/>
</g>
<!-- drop_rx(frame_len) -->
<g id="node8" class="node">
<title>drop_rx(frame_len)</title>
<polygon fill="none" stroke="black" points="1150,-152 998,-152 998,-116 1150,-116 1150,-152"/>
<text text-anchor="middle" x="1074" y="-130.3" font-family="Times,serif" font-size="14.00">drop_rx(frame_len)</text>
</g>
<!-- handle_frame(cmd,payload)&#45;&gt;drop_rx(frame_len) -->
<g id="edge7" class="edge">
<title>handle_frame(cmd,payload)&#45;&gt;drop_rx(frame_len)</title>
<path fill="none" stroke="black" d="M961.13,-119.63C970.08,-120.78 979.05,-121.93 987.81,-123.06"/>
<polygon fill="black" stroke="black" points="987.62,-126.56 997.98,-124.36 988.51,-119.62 987.62,-126.56"/>
</g>
<!-- drop_rx(frame_len)&#45;&gt;Parse loop -->
<g id="edge8" class="edge">
<title>drop_rx(frame_len)&#45;&gt;Parse loop</title>
<path fill="none" stroke="black" d="M997.96,-143.26C955.98,-147.67 902.66,-152 855,-152 437.5,-152 437.5,-152 437.5,-152 384.72,-152 335.35,-110.11 307.91,-81.67"/>
<polygon fill="black" stroke="black" points="310.16,-78.96 300.77,-74.06 305.05,-83.75 310.16,-78.96"/>
</g>
</g>
</svg>
